# xmcd
#
# Track frame offsets: 
#        182
#        15060
#        26665
#        40215
#        55707
#        66590
#        80520
#        90792
#        102725
#        117355
#        131360
#        147055
#        162357
#        173177
#        187452
#        205820
#        219000
#        233220
#        245967
#        265547
#        278972
#        292982
#        308915
#
# Disc length: 4409 seconds
#
# Revision: 0
# Processed by: cddbd v1.5PL3 Copyright (c) Steve Scherf et al.
# Submitted via: ExactAudioCopy v0.95a5
#
DISCID=47113717
DTITLE=John Travolta - Greased Lightnin'
DYEAR=1996
DGENRE=Oldies
TTITLE0=Greased Lightnin'
TTITLE1=Sandy
TTITLE2=Let Her In
TTITLE3=Never Gonna Fall In Love Again
TTITLE4=Rainbows
TTITLE5=Razzamatazz
TTITLE6=I Don't Know What I Like About You Baby
TTITLE7=Big Trouble
TTITLE8=Goodnight Mr. Moon
TTITLE9=Baby, I Could Be So Good At Lovin' You
TTITLE10=Slow Dancin'
TTITLE11=Can't Let You Go
TTITLE12=It Had To Be You
TTITLE13=Easy Evil
TTITLE14=Back Door Crying
TTITLE15=What Would They Say
TTITLE16=Right Time Of The Night
TTITLE17=Moonlight Lady
TTITLE18=Settle Down
TTITLE19=You Set My Dreams To Music
TTITLE20=Whenever I'm Away From You
TTITLE21=All Strung Out On You
TTITLE22=A Girl Like You
EXTD=
EXTT0=
EXTT1=
EXTT2=
EXTT3=
EXTT4=
EXTT5=
EXTT6=
EXTT7=
EXTT8=
EXTT9=
EXTT10=
EXTT11=
EXTT12=
EXTT13=
EXTT14=
EXTT15=
EXTT16=
EXTT17=
EXTT18=
EXTT19=
EXTT20=
EXTT21=
EXTT22=
PLAYORDER=
